<svg xmlns="http://www.w3.org/2000/svg" xmlns:xlink="http://www.w3.org/1999/xlink" viewBox="0 0 26 26" fill="#00FB3F">
  <path d="M15.203125 17.136719L15.109375 17.136719C14.390625 19.15625 13.089844 20.164063 11.199219 20.164063C9.78125 20.164063 8.640625 19.636719 7.773438 18.578125C6.902344 17.523438 6.46875 16.058594 6.46875 14.1875C6.46875 11.769531 7.070313 9.800781 8.273438 8.28125C9.472656 6.765625 10.921875 6.007813 12.613281 6.007813C14.144531 6.007813 15.105469 6.625 15.496094 7.863281L15.558594 7.863281L15.710938 6.292969L19.175781 6.292969C18.714844 10.796875 18.480469 13.738281 18.480469 15.125C18.480469 16.605469 18.871094 17.34375 19.652344 17.34375C20.476563 17.34375 21.152344 16.78125 21.6875 15.664063C22.21875 14.542969 22.488281 13.078125 22.488281 11.273438C22.488281 8.800781 21.722656 6.773438 20.191406 5.191406C18.660156 3.613281 16.527344 2.820313 13.785156 2.820313C10.847656 2.820313 8.40625 3.875 6.460938 5.984375C4.515625 8.09375 3.542969 10.664063 3.542969 13.699219C3.542969 16.636719 4.402344 18.949219 6.121094 20.640625C7.84375 22.332031 10.214844 23.179688 13.246094 23.179688C15.558594 23.179688 17.671875 22.726563 19.59375 21.816406L19.59375 24.84375C17.835938 25.613281 15.578125 26 12.816406 26C9.023438 26 5.941406 24.882813 3.566406 22.648438C1.1875 20.410156 0 17.40625 0 13.632813C0 9.785156 1.269531 6.554688 3.804688 3.933594C6.339844 1.3125 9.605469 0 13.601563 0C17.296875 0 20.289063 1.015625 22.574219 3.050781C24.859375 5.085938 26 7.769531 26 11.097656C26 13.835938 25.300781 16.03125 23.90625 17.6875C22.507813 19.339844 20.777344 20.167969 18.714844 20.167969C17.699219 20.167969 16.871094 19.886719 16.234375 19.328125C15.597656 18.765625 15.253906 18.035156 15.203125 17.136719 Z M 13.152344 8.765625C12.230469 8.765625 11.476563 9.308594 10.898438 10.390625C10.316406 11.476563 10.027344 12.730469 10.027344 14.15625C10.027344 15.171875 10.226563 15.960938 10.621094 16.527344C11.015625 17.09375 11.523438 17.375 12.152344 17.375C13.117188 17.375 13.878906 16.84375 14.433594 15.773438C14.984375 14.707031 15.261719 13.28125 15.261719 11.496094C15.261719 10.648438 15.070313 9.984375 14.683594 9.496094C14.300781 9.011719 13.789063 8.765625 13.152344 8.765625Z" fill="#00FB3F" />
</svg>